M48
;Layer_Color=9474304
;FILE_FORMAT=4:2
METRIC,LZ
;TYPE=PLATED
T1F00S00C0.80
T2F00S00C0.85
T3F00S00C0.90
T4F00S00C1.00
T5F00S00C1.20
T6F00S00C3.00
%
T01
X002782Y007277
T02
X006896Y006439
X007391
Y007455
X006896
T03
X004115Y003111
Y003365
Y003619
Y003874
X004369
Y003619
Y003365
Y003111
X010173
Y003365
Y003619
Y003874
X010427
Y003619
Y003365
Y003111
Y004128
Y004381
Y004635
Y00489
Y005144
Y005397
Y005651
Y005906
Y00616
Y006414
Y006668
Y006921
Y007175
Y007429
Y007683
X010173
Y007429
Y007175
Y006921
Y006668
Y006414
Y00616
Y005906
Y005651
Y005397
Y005144
Y00489
Y004635
Y004381
Y004128
X004369
Y004381
Y004635
Y00489
Y005144
Y005397
Y005651
Y005906
Y00616
Y006414
Y006668
Y006921
Y007175
Y007429
Y007683
X004115
Y007429
Y007175
Y006921
Y006668
Y006414
Y00616
Y005906
Y005651
Y005397
Y005144
Y00489
Y004635
Y004381
Y004128
X006756Y008293
X00701
X007264
X007518
T04
X006756Y004064
X00701
X007264
X007518
X003289Y007277
X003037
T05
X002273Y003924
X003289
X011278
X012294
Y00494
X011278
X011786Y004432
X003289Y00494
X002273
X002781Y004432
X002908Y008534
X003416
T06
X003442Y003175
X011189
X004864Y008433
X009614
M30
