G04 Layer_Physical_Order=2*
G04 Layer_Color=16711680*
%FSLAX42Y42*%
%MOMM*%
G71*
G01*
G75*
%ADD10C,1.00*%
%ADD11C,2.03*%
%ADD12C,1.52*%
%ADD13C,1.40*%
%ADD14C,1.50*%
%ADD15R,1.50X1.50*%
%ADD16R,1.50X1.50*%
%ADD17C,0.80*%
%ADD18C,3.00*%
%ADD19O,4.00X5.00*%
%ADD20R,4.00X5.00*%
%ADD21C,1.60*%
%ADD22C,2.00*%
%ADD23R,2.00X2.00*%
D10*
X6826Y6509D02*
X6896Y6439D01*
X6617Y6718D02*
X6687Y6648D01*
X11532Y6428D02*
Y6975D01*
Y7341D01*
Y5880D02*
Y6428D01*
X6756Y8052D02*
Y8395D01*
X6617Y7912D02*
X6756Y8052D01*
X6617Y6718D02*
Y7912D01*
X7391Y7455D02*
Y7836D01*
X7264Y7963D02*
X7391Y7836D01*
X7264Y7963D02*
Y8395D01*
X7010Y7976D02*
Y8395D01*
X6896Y7861D02*
X7010Y7976D01*
X6896Y7455D02*
Y7861D01*
X5626Y8661D02*
X6896D01*
X5029Y8064D02*
X5626Y8661D01*
X4102Y8064D02*
X5029D01*
X3785Y7747D02*
X4102Y8064D01*
X3785Y6680D02*
Y7747D01*
X2908Y5804D02*
X3785Y6680D01*
X6363Y5906D02*
X6896Y6439D01*
X7391D01*
X4699Y2794D02*
X4877Y2972D01*
X2807Y2794D02*
X4699D01*
X2095Y3505D02*
X2807Y2794D01*
X2095Y5562D02*
X2782Y6248D01*
X2095Y3505D02*
Y5562D01*
X2908Y4432D02*
Y5804D01*
X2782Y6248D02*
Y7277D01*
X4877Y2972D02*
Y4775D01*
X4762Y4890D02*
X4877Y4775D01*
X4369Y4890D02*
X4762D01*
X6687Y6648D02*
X6826Y6509D01*
X7010Y8395D02*
Y8547D01*
X6896Y8661D02*
X7010Y8547D01*
X7353Y8674D02*
X8788D01*
X10744Y8128D02*
X11532Y7341D01*
X7264Y8395D02*
Y8585D01*
X7353Y8674D01*
X8788D02*
X9335Y8128D01*
X10744D01*
X11532Y5880D02*
X11786Y5626D01*
Y4432D02*
Y5626D01*
X9665Y4890D02*
X10173D01*
X7391Y7163D02*
X9665Y4890D01*
X7391Y7163D02*
Y7455D01*
X9766Y4381D02*
X10173D01*
X6915Y7233D02*
X9766Y4381D01*
X6915Y7233D02*
Y7436D01*
X6896Y7455D02*
X6915Y7436D01*
X4369Y5906D02*
X6363D01*
X3416Y7404D02*
Y8534D01*
X3289Y7277D02*
X3416Y7404D01*
D11*
X6756Y4064D02*
D03*
X7010D02*
D03*
X7264D02*
D03*
X7518D02*
D03*
D12*
X11189Y3175D02*
D03*
X3442D02*
D03*
X4864Y8433D02*
D03*
X9614D02*
D03*
D13*
X6896Y7455D02*
D03*
Y6439D02*
D03*
X7391Y7455D02*
D03*
Y6439D02*
D03*
D14*
X6756Y8395D02*
D03*
X7010D02*
D03*
X7264D02*
D03*
X10427Y3111D02*
D03*
X10173D02*
D03*
X10427Y3365D02*
D03*
X10173D02*
D03*
X10427Y3619D02*
D03*
X10173D02*
D03*
X10427Y3874D02*
D03*
X10173D02*
D03*
X10427Y4128D02*
D03*
X10173D02*
D03*
X10427Y4381D02*
D03*
X10173D02*
D03*
X10427Y4635D02*
D03*
X10173D02*
D03*
X10427Y4890D02*
D03*
X10173D02*
D03*
X10427Y5144D02*
D03*
X10173D02*
D03*
X10427Y5397D02*
D03*
X10173D02*
D03*
X10427Y5651D02*
D03*
X10173D02*
D03*
X10427Y5906D02*
D03*
X10173D02*
D03*
X10427Y6160D02*
D03*
X10173D02*
D03*
X10427Y6414D02*
D03*
X10173D02*
D03*
X10427Y6668D02*
D03*
X10173D02*
D03*
X10427Y6921D02*
D03*
X10173D02*
D03*
X10427Y7175D02*
D03*
X10173D02*
D03*
X10427Y7429D02*
D03*
X10173D02*
D03*
X10427Y7683D02*
D03*
X4369Y3111D02*
D03*
X4115D02*
D03*
X4369Y3365D02*
D03*
X4115D02*
D03*
X4369Y3619D02*
D03*
X4115D02*
D03*
X4369Y3874D02*
D03*
X4115D02*
D03*
X4369Y4128D02*
D03*
X4115D02*
D03*
X4369Y4381D02*
D03*
X4115D02*
D03*
X4369Y4635D02*
D03*
X4115D02*
D03*
X4369Y4890D02*
D03*
Y5144D02*
D03*
Y5397D02*
D03*
X4115D02*
D03*
X4369Y5651D02*
D03*
X4115D02*
D03*
X4369Y5906D02*
D03*
X4115D02*
D03*
X4369Y6160D02*
D03*
X4115D02*
D03*
X4369Y6414D02*
D03*
X4115D02*
D03*
X4369Y6668D02*
D03*
X4115D02*
D03*
X4369Y6921D02*
D03*
X4115D02*
D03*
X4369Y7175D02*
D03*
X4115D02*
D03*
X4369Y7429D02*
D03*
X4115D02*
D03*
X4369Y7683D02*
D03*
D15*
X7518Y8395D02*
D03*
D16*
X10173Y7683D02*
D03*
X4115D02*
D03*
D17*
Y4890D02*
D03*
Y5144D02*
D03*
D18*
X2908Y4432D02*
D03*
X3416Y4940D02*
D03*
Y3924D02*
D03*
X2400D02*
D03*
Y4940D02*
D03*
X11786Y4432D02*
D03*
X11278Y3924D02*
D03*
Y4940D02*
D03*
X12294D02*
D03*
Y3924D02*
D03*
D19*
X3416Y8534D02*
D03*
D20*
X2908D02*
D03*
D21*
X2782Y7277D02*
D03*
D22*
X3037D02*
D03*
D23*
X3289D02*
D03*
M02*
