M48
;Layer_Color=9474304
;FILE_FORMAT=4:2
METRIC,LZ
;TYPE=PLATED
T1F00S00C0.85
T2F00S00C0.90
T3F00S00C1.20
T4F00S00C3.00
%
T01
X007074Y008534
X007569
Y00955
X007074
T02
X004115Y003111
Y003365
Y003619
Y003874
X004369
Y003619
Y003365
Y003111
X010173
Y003365
Y003619
Y003874
X010427
Y003619
Y003365
Y003111
Y004128
Y004381
Y004635
Y00489
Y005144
Y005397
Y005651
Y005906
Y00616
Y006414
Y006668
Y006921
Y007175
Y007429
Y007683
X010173
Y007429
Y007175
Y006921
Y006668
Y006414
Y00616
Y005906
Y005651
Y005397
Y005144
Y00489
Y004635
Y004381
Y004128
X004369
Y004381
Y004635
Y00489
Y005144
Y005397
Y005651
Y005906
Y00616
Y006414
Y006668
Y006921
Y007175
Y007429
Y007683
X004115
Y007429
Y007175
Y006921
Y006668
Y006414
Y00616
Y005906
Y005651
Y005397
Y005144
Y00489
Y004635
Y004381
Y004128
X006934Y010389
X007188
X007442
X007696
T03
X003835Y009042
Y010058
X004851
Y009042
X004343Y00955
X009919Y010058
X010935
Y009042
X009919
X010427Y00955
T04
X003073Y003175
X011024
Y01209
X003073
M30
