M48
;Layer_Color=9474304
;FILE_FORMAT=4:3
METRIC,LZ
;TYPE=PLATED
T1F00S00C0.711
T2F00S00C1.000
T3F00S00C1.200
;TYPE=NON_PLATED
T4F00S00C2.750
%
T01
X0022Y0024
X002196Y002654
X002192Y002908
T02
X00365Y0024
Y002654
Y002908
Y003162
X003644Y0051
X00339
X003136
Y005354
X002882
Y0051
X002628
Y005354
X002374
Y0051
X00212
Y005354
X001866
Y0051
X001612
Y005354
X001358
Y0051
X001104
Y005354
X00085
Y0051
X00339Y005354
X003644
X003898
Y0051
X004152
Y005354
X004406
Y0051
X00466
Y005354
X004914
X005168
X005422
X005676
Y0051
X005422
X005168
X004914
T03
X005092Y001092
X006108
Y002108
X005092
X0056Y0016
X005092Y003292
X006108
X0056Y0038
X006108Y004308
X005092
T04
X00615Y00035
X00035
Y00525
X00615
M30
