G04 Layer_Physical_Order=1*
G04 Layer_Color=255*
%FSLAX43Y43*%
%MOMM*%
G71*
G01*
G75*
%ADD10C,1.000*%
%ADD11C,0.254*%
%ADD12C,6.200*%
%ADD13C,2.032*%
%ADD14P,2.199X8X112.5*%
%ADD15R,2.032X2.032*%
%ADD16C,3.000*%
%ADD17C,1.270*%
G36*
X64864Y54500D02*
Y53398D01*
X64737Y53383D01*
X64700Y53540D01*
X64498Y54027D01*
X64222Y54478D01*
X63879Y54879D01*
X63478Y55222D01*
X63027Y55498D01*
X62540Y55700D01*
X62026Y55823D01*
X61500Y55864D01*
X60974Y55823D01*
X60460Y55700D01*
X59973Y55498D01*
X59522Y55222D01*
X59121Y54879D01*
X58778Y54478D01*
X58502Y54027D01*
X58300Y53540D01*
X58177Y53026D01*
X58136Y52500D01*
X58177Y51974D01*
X58300Y51460D01*
X58502Y50973D01*
X58778Y50522D01*
X59121Y50121D01*
X59522Y49778D01*
X59973Y49502D01*
X60460Y49300D01*
X60974Y49177D01*
X61500Y49136D01*
X62026Y49177D01*
X62540Y49300D01*
X63027Y49502D01*
X63478Y49778D01*
X63879Y50121D01*
X64222Y50522D01*
X64498Y50973D01*
X64700Y51460D01*
X64737Y51617D01*
X64864Y51602D01*
Y4398D01*
X64737Y4383D01*
X64700Y4540D01*
X64498Y5027D01*
X64222Y5478D01*
X63879Y5879D01*
X63478Y6222D01*
X63027Y6498D01*
X62540Y6700D01*
X62026Y6823D01*
X61500Y6864D01*
X60974Y6823D01*
X60460Y6700D01*
X59973Y6498D01*
X59522Y6222D01*
X59121Y5879D01*
X58778Y5478D01*
X58502Y5027D01*
X58300Y4540D01*
X58177Y4026D01*
X58136Y3500D01*
X58177Y2974D01*
X58300Y2460D01*
X58502Y1973D01*
X58778Y1522D01*
X59121Y1121D01*
X59522Y778D01*
X59973Y502D01*
X60460Y300D01*
X60974Y177D01*
X61500Y136D01*
X62026Y177D01*
X62540Y300D01*
X63027Y502D01*
X63478Y778D01*
X63879Y1121D01*
X64222Y1522D01*
X64498Y1973D01*
X64700Y2460D01*
X64737Y2617D01*
X64864Y2602D01*
Y1500D01*
X63364Y0D01*
X1364D01*
X-136Y1500D01*
Y19000D01*
X3864D01*
X4864Y20000D01*
Y35000D01*
X3864Y36000D01*
X364D01*
Y36000D01*
X-136Y36500D01*
Y54500D01*
X1364Y56000D01*
X63364D01*
X64864Y54500D01*
D02*
G37*
%LPC*%
G36*
X57395Y54810D02*
X56125D01*
X55490Y54175D01*
X54855Y54810D01*
X53585D01*
X52950Y54175D01*
X52315Y54810D01*
X51045D01*
X50410Y54175D01*
X49775Y54810D01*
X49267D01*
Y53540D01*
X49013D01*
Y54810D01*
X48505D01*
X47870Y54175D01*
X47235Y54810D01*
X45965D01*
X45330Y54175D01*
X44695Y54810D01*
X44187D01*
Y53540D01*
X43933D01*
Y54810D01*
X43425D01*
X42790Y54175D01*
X42155Y54810D01*
X40885D01*
X40250Y54175D01*
X39615Y54810D01*
X38345D01*
X37710Y54175D01*
X37075Y54810D01*
X35805D01*
X35170Y54175D01*
X34535Y54810D01*
X33265D01*
X32630Y54175D01*
X31995Y54810D01*
X31487D01*
Y53540D01*
X31233D01*
Y54810D01*
X30725D01*
X30090Y54175D01*
X29455Y54810D01*
X28185D01*
X27550Y54175D01*
X26915Y54810D01*
X25645D01*
X25010Y54175D01*
X24375Y54810D01*
X23867D01*
Y53540D01*
X23613D01*
Y54810D01*
X23105D01*
X22470Y54175D01*
X21835Y54810D01*
X20565D01*
X19930Y54175D01*
X19295Y54810D01*
X18025D01*
X17390Y54175D01*
X16755Y54810D01*
X15485D01*
X14850Y54175D01*
X14215Y54810D01*
X13707D01*
Y53540D01*
X13453D01*
Y54810D01*
X12945D01*
X12310Y54175D01*
X11675Y54810D01*
X10405D01*
X9770Y54175D01*
X9135Y54810D01*
X7865D01*
X7230Y54175D01*
Y52905D01*
X7748Y52387D01*
X7699Y52270D01*
X7230D01*
Y49730D01*
X7739D01*
Y29500D01*
X7765Y29303D01*
X7841Y29120D01*
X7962Y28962D01*
X13462Y23462D01*
X13620Y23341D01*
X13803Y23265D01*
X14000Y23239D01*
X21531D01*
X21552Y23223D01*
X21768Y23134D01*
X22000Y23103D01*
X22232Y23134D01*
X22448Y23223D01*
X22634Y23366D01*
X22777Y23552D01*
X22866Y23768D01*
X22897Y24000D01*
X22866Y24232D01*
X22777Y24448D01*
X22634Y24634D01*
X22448Y24777D01*
X22232Y24866D01*
X22000Y24897D01*
X21768Y24866D01*
X21552Y24777D01*
X21531Y24761D01*
X14315D01*
X9261Y29815D01*
Y49730D01*
X9770D01*
Y50199D01*
X9887Y50248D01*
X10279Y49856D01*
Y31960D01*
X10305Y31763D01*
X10381Y31580D01*
X10502Y31422D01*
X15922Y26002D01*
X16080Y25881D01*
X16263Y25805D01*
X16460Y25779D01*
X21491D01*
X21512Y25763D01*
X21728Y25674D01*
X21960Y25643D01*
X22192Y25674D01*
X22408Y25763D01*
X22594Y25906D01*
X22737Y26092D01*
X22826Y26308D01*
X22857Y26540D01*
X22826Y26772D01*
X22737Y26988D01*
X22594Y27174D01*
X22408Y27317D01*
X22192Y27406D01*
X21960Y27437D01*
X21728Y27406D01*
X21512Y27317D01*
X21491Y27301D01*
X16775D01*
X11801Y32275D01*
Y49856D01*
X12310Y50365D01*
X12819Y49856D01*
Y33920D01*
X12845Y33723D01*
X12921Y33540D01*
X13042Y33382D01*
X17882Y28542D01*
X18040Y28421D01*
X18223Y28345D01*
X18420Y28319D01*
X21451D01*
X21472Y28303D01*
X21688Y28214D01*
X21920Y28183D01*
X22152Y28214D01*
X22368Y28303D01*
X22554Y28446D01*
X22697Y28632D01*
X22786Y28848D01*
X22817Y29080D01*
X22786Y29312D01*
X22697Y29528D01*
X22554Y29714D01*
X22368Y29857D01*
X22152Y29946D01*
X21920Y29977D01*
X21688Y29946D01*
X21472Y29857D01*
X21451Y29841D01*
X18735D01*
X14341Y34235D01*
Y49856D01*
X14493Y50008D01*
X14538Y50042D01*
X14572Y50087D01*
X14850Y50365D01*
X15485Y49730D01*
X16755D01*
X17390Y50365D01*
X18025Y49730D01*
X18533D01*
Y51000D01*
X18787D01*
Y49730D01*
X19295D01*
X19930Y50365D01*
X20565Y49730D01*
X21835D01*
X22470Y50365D01*
X23105Y49730D01*
X24375D01*
X25010Y50365D01*
X25645Y49730D01*
X26915D01*
X27550Y50365D01*
X28185Y49730D01*
X29455D01*
X30090Y50365D01*
X30725Y49730D01*
X31995D01*
X32630Y50365D01*
X33265Y49730D01*
X34535D01*
X35170Y50365D01*
X35805Y49730D01*
X37075D01*
X37710Y50365D01*
X38345Y49730D01*
X38853D01*
Y51000D01*
X39107D01*
Y49730D01*
X39615D01*
X40250Y50365D01*
X40885Y49730D01*
X42155D01*
X42790Y50365D01*
X43425Y49730D01*
X44695D01*
X45330Y50365D01*
X45965Y49730D01*
X47235D01*
X47870Y50365D01*
X48505Y49730D01*
X49775D01*
X50410Y50365D01*
X51045Y49730D01*
X52315D01*
X52950Y50365D01*
X53585Y49730D01*
X54855D01*
X55490Y50365D01*
X56125Y49730D01*
X57395D01*
X58030Y50365D01*
Y51635D01*
X57395Y52270D01*
X58030Y52905D01*
Y54175D01*
X57395Y54810D01*
D02*
G37*
G36*
X3500Y55864D02*
X2974Y55823D01*
X2460Y55700D01*
X1973Y55498D01*
X1522Y55222D01*
X1121Y54879D01*
X778Y54478D01*
X502Y54027D01*
X300Y53540D01*
X177Y53026D01*
X136Y52500D01*
X177Y51974D01*
X300Y51460D01*
X502Y50973D01*
X778Y50522D01*
X1121Y50121D01*
X1522Y49778D01*
X1973Y49502D01*
X2460Y49300D01*
X2974Y49177D01*
X3500Y49136D01*
X4026Y49177D01*
X4540Y49300D01*
X5027Y49502D01*
X5478Y49778D01*
X5879Y50121D01*
X6222Y50522D01*
X6498Y50973D01*
X6700Y51460D01*
X6823Y51974D01*
X6864Y52500D01*
X6823Y53026D01*
X6700Y53540D01*
X6498Y54027D01*
X6222Y54478D01*
X5879Y54879D01*
X5478Y55222D01*
X5027Y55498D01*
X4540Y55700D01*
X4026Y55823D01*
X3500Y55864D01*
D02*
G37*
G36*
X61207Y44830D02*
Y43207D01*
X62830D01*
X62809Y43424D01*
X62708Y43754D01*
X62545Y44059D01*
X62326Y44326D01*
X62059Y44545D01*
X61754Y44708D01*
X61424Y44809D01*
X61207Y44830D01*
D02*
G37*
G36*
X60953D02*
X60736Y44809D01*
X60406Y44708D01*
X60101Y44545D01*
X59834Y44326D01*
X59615Y44059D01*
X59452Y43754D01*
X59351Y43424D01*
X59330Y43207D01*
X60953D01*
Y44830D01*
D02*
G37*
G36*
X51047D02*
Y43207D01*
X52670D01*
X52649Y43424D01*
X52548Y43754D01*
X52385Y44059D01*
X52166Y44326D01*
X51899Y44545D01*
X51594Y44708D01*
X51264Y44809D01*
X51047Y44830D01*
D02*
G37*
G36*
X50793D02*
X50576Y44809D01*
X50246Y44708D01*
X49941Y44545D01*
X49674Y44326D01*
X49455Y44059D01*
X49292Y43754D01*
X49191Y43424D01*
X49170Y43207D01*
X50793D01*
Y44830D01*
D02*
G37*
G36*
X62830Y42953D02*
X61207D01*
Y41330D01*
X61424Y41351D01*
X61754Y41452D01*
X62059Y41615D01*
X62326Y41834D01*
X62545Y42101D01*
X62708Y42406D01*
X62809Y42736D01*
X62830Y42953D01*
D02*
G37*
G36*
X60953D02*
X59330D01*
X59351Y42736D01*
X59452Y42406D01*
X59615Y42101D01*
X59834Y41834D01*
X60101Y41615D01*
X60406Y41452D01*
X60736Y41351D01*
X60953Y41330D01*
Y42953D01*
D02*
G37*
G36*
X52670D02*
X51047D01*
Y41330D01*
X51264Y41351D01*
X51594Y41452D01*
X51899Y41615D01*
X52166Y41834D01*
X52385Y42101D01*
X52548Y42406D01*
X52649Y42736D01*
X52670Y42953D01*
D02*
G37*
G36*
X50793D02*
X49170D01*
X49191Y42736D01*
X49292Y42406D01*
X49455Y42101D01*
X49674Y41834D01*
X49941Y41615D01*
X50246Y41452D01*
X50576Y41351D01*
X50793Y41330D01*
Y42953D01*
D02*
G37*
G36*
X56000Y40425D02*
X55957Y40420D01*
X53968D01*
X53819Y40391D01*
X53693Y40307D01*
X53609Y40181D01*
X53580Y40032D01*
Y38043D01*
X53575Y38000D01*
X53580Y37957D01*
Y35968D01*
X53609Y35819D01*
X53693Y35693D01*
X53819Y35609D01*
X53968Y35580D01*
X55957D01*
X56000Y35575D01*
X56043Y35580D01*
X58032D01*
X58181Y35609D01*
X58307Y35693D01*
X58391Y35819D01*
X58420Y35968D01*
Y37957D01*
X58425Y38000D01*
X58420Y38043D01*
Y40032D01*
X58391Y40181D01*
X58307Y40307D01*
X58181Y40391D01*
X58032Y40420D01*
X56043D01*
X56000Y40425D01*
D02*
G37*
G36*
X61207Y34670D02*
Y33047D01*
X62830D01*
X62809Y33264D01*
X62708Y33594D01*
X62545Y33899D01*
X62326Y34166D01*
X62059Y34385D01*
X61754Y34548D01*
X61424Y34649D01*
X61207Y34670D01*
D02*
G37*
G36*
X60953D02*
X60736Y34649D01*
X60406Y34548D01*
X60101Y34385D01*
X59834Y34166D01*
X59615Y33899D01*
X59452Y33594D01*
X59351Y33264D01*
X59330Y33047D01*
X60953D01*
Y34670D01*
D02*
G37*
G36*
X51047D02*
Y33047D01*
X52670D01*
X52649Y33264D01*
X52548Y33594D01*
X52385Y33899D01*
X52166Y34166D01*
X51899Y34385D01*
X51594Y34548D01*
X51264Y34649D01*
X51047Y34670D01*
D02*
G37*
G36*
X50793D02*
X50576Y34649D01*
X50246Y34548D01*
X49941Y34385D01*
X49674Y34166D01*
X49455Y33899D01*
X49292Y33594D01*
X49191Y33264D01*
X49170Y33047D01*
X50793D01*
Y34670D01*
D02*
G37*
G36*
X36627Y32884D02*
Y31747D01*
X37764D01*
X37737Y31952D01*
X37609Y32260D01*
X37406Y32526D01*
X37140Y32729D01*
X36832Y32857D01*
X36627Y32884D01*
D02*
G37*
G36*
X36373Y32884D02*
X36168Y32857D01*
X35860Y32729D01*
X35594Y32526D01*
X35391Y32260D01*
X35263Y31952D01*
X35236Y31747D01*
X36373D01*
Y32884D01*
D02*
G37*
G36*
X62830Y32793D02*
X61207D01*
Y31170D01*
X61424Y31191D01*
X61754Y31292D01*
X62059Y31455D01*
X62326Y31674D01*
X62545Y31941D01*
X62708Y32246D01*
X62809Y32576D01*
X62830Y32793D01*
D02*
G37*
G36*
X60953D02*
X59330D01*
X59351Y32576D01*
X59452Y32246D01*
X59615Y31941D01*
X59834Y31674D01*
X60101Y31455D01*
X60406Y31292D01*
X60736Y31191D01*
X60953Y31170D01*
Y32793D01*
D02*
G37*
G36*
X52670D02*
X51047D01*
Y31170D01*
X51264Y31191D01*
X51594Y31292D01*
X51899Y31455D01*
X52166Y31674D01*
X52385Y31941D01*
X52548Y32246D01*
X52649Y32576D01*
X52670Y32793D01*
D02*
G37*
G36*
X50793D02*
X49170D01*
X49191Y32576D01*
X49292Y32246D01*
X49455Y31941D01*
X49674Y31674D01*
X49941Y31455D01*
X50246Y31292D01*
X50576Y31191D01*
X50793Y31170D01*
Y32793D01*
D02*
G37*
G36*
X55071Y30032D02*
X49992D01*
Y27492D01*
X55071D01*
Y30032D01*
D02*
G37*
G36*
X37764Y31493D02*
X36500D01*
X35236D01*
X35263Y31288D01*
X35391Y30980D01*
X35594Y30714D01*
X35860Y30511D01*
X36081Y30419D01*
Y30281D01*
X35860Y30189D01*
X35594Y29986D01*
X35391Y29720D01*
X35263Y29412D01*
X35219Y29080D01*
X35263Y28748D01*
X35391Y28440D01*
X35594Y28174D01*
X35860Y27971D01*
X36081Y27879D01*
Y27741D01*
X35860Y27649D01*
X35594Y27446D01*
X35391Y27180D01*
X35263Y26872D01*
X35219Y26540D01*
X35263Y26208D01*
X35391Y25900D01*
X35594Y25634D01*
X35860Y25431D01*
X36081Y25339D01*
Y25201D01*
X35860Y25109D01*
X35594Y24906D01*
X35391Y24640D01*
X35263Y24332D01*
X35219Y24000D01*
X35263Y23668D01*
X35391Y23360D01*
X35594Y23094D01*
X35860Y22891D01*
X36168Y22763D01*
X36500Y22719D01*
X36832Y22763D01*
X37140Y22891D01*
X37406Y23094D01*
X37609Y23360D01*
X37737Y23668D01*
X37781Y24000D01*
X37737Y24332D01*
X37609Y24640D01*
X37406Y24906D01*
X37140Y25109D01*
X36919Y25201D01*
Y25339D01*
X37140Y25431D01*
X37406Y25634D01*
X37609Y25900D01*
X37737Y26208D01*
X37781Y26540D01*
X37737Y26872D01*
X37609Y27180D01*
X37406Y27446D01*
X37140Y27649D01*
X36919Y27741D01*
Y27879D01*
X37140Y27971D01*
X37406Y28174D01*
X37609Y28440D01*
X37737Y28748D01*
X37781Y29080D01*
X37737Y29412D01*
X37609Y29720D01*
X37406Y29986D01*
X37140Y30189D01*
X36919Y30281D01*
Y30419D01*
X37140Y30511D01*
X37406Y30714D01*
X37609Y30980D01*
X37737Y31288D01*
X37764Y31493D01*
D02*
G37*
G36*
X61207Y22830D02*
Y21207D01*
X62830D01*
X62809Y21424D01*
X62708Y21754D01*
X62545Y22059D01*
X62326Y22326D01*
X62059Y22545D01*
X61754Y22708D01*
X61424Y22809D01*
X61207Y22830D01*
D02*
G37*
G36*
X60953D02*
X60736Y22809D01*
X60406Y22708D01*
X60101Y22545D01*
X59834Y22326D01*
X59615Y22059D01*
X59452Y21754D01*
X59351Y21424D01*
X59330Y21207D01*
X60953D01*
Y22830D01*
D02*
G37*
G36*
X51047D02*
Y21207D01*
X52670D01*
X52649Y21424D01*
X52548Y21754D01*
X52385Y22059D01*
X52166Y22326D01*
X51899Y22545D01*
X51594Y22708D01*
X51264Y22809D01*
X51047Y22830D01*
D02*
G37*
G36*
X50793D02*
X50576Y22809D01*
X50246Y22708D01*
X49941Y22545D01*
X49674Y22326D01*
X49455Y22059D01*
X49292Y21754D01*
X49191Y21424D01*
X49170Y21207D01*
X50793D01*
Y22830D01*
D02*
G37*
G36*
X62830Y20953D02*
X61207D01*
Y19330D01*
X61424Y19351D01*
X61754Y19452D01*
X62059Y19615D01*
X62326Y19834D01*
X62545Y20101D01*
X62708Y20406D01*
X62809Y20736D01*
X62830Y20953D01*
D02*
G37*
G36*
X60953D02*
X59330D01*
X59351Y20736D01*
X59452Y20406D01*
X59615Y20101D01*
X59834Y19834D01*
X60101Y19615D01*
X60406Y19452D01*
X60736Y19351D01*
X60953Y19330D01*
Y20953D01*
D02*
G37*
G36*
X52670D02*
X51047D01*
Y19330D01*
X51264Y19351D01*
X51594Y19452D01*
X51899Y19615D01*
X52166Y19834D01*
X52385Y20101D01*
X52548Y20406D01*
X52649Y20736D01*
X52670Y20953D01*
D02*
G37*
G36*
X50793D02*
X49170D01*
X49191Y20736D01*
X49292Y20406D01*
X49455Y20101D01*
X49674Y19834D01*
X49941Y19615D01*
X50246Y19452D01*
X50576Y19351D01*
X50793Y19330D01*
Y20953D01*
D02*
G37*
G36*
X56000Y18425D02*
X55957Y18420D01*
X53968D01*
X53819Y18391D01*
X53693Y18307D01*
X53609Y18181D01*
X53580Y18032D01*
Y16043D01*
X53575Y16000D01*
X53580Y15957D01*
Y13968D01*
X53609Y13819D01*
X53693Y13693D01*
X53819Y13609D01*
X53968Y13580D01*
X55957D01*
X56000Y13575D01*
X56043Y13580D01*
X58032D01*
X58181Y13609D01*
X58307Y13693D01*
X58391Y13819D01*
X58420Y13968D01*
Y15957D01*
X58425Y16000D01*
X58420Y16043D01*
Y18032D01*
X58391Y18181D01*
X58307Y18307D01*
X58181Y18391D01*
X58032Y18420D01*
X56043D01*
X56000Y18425D01*
D02*
G37*
G36*
X61207Y12670D02*
Y11047D01*
X62830D01*
X62809Y11264D01*
X62708Y11594D01*
X62545Y11899D01*
X62326Y12166D01*
X62059Y12385D01*
X61754Y12548D01*
X61424Y12649D01*
X61207Y12670D01*
D02*
G37*
G36*
X60953D02*
X60736Y12649D01*
X60406Y12548D01*
X60101Y12385D01*
X59834Y12166D01*
X59615Y11899D01*
X59452Y11594D01*
X59351Y11264D01*
X59330Y11047D01*
X60953D01*
Y12670D01*
D02*
G37*
G36*
X51047D02*
Y11047D01*
X52670D01*
X52649Y11264D01*
X52548Y11594D01*
X52385Y11899D01*
X52166Y12166D01*
X51899Y12385D01*
X51594Y12548D01*
X51264Y12649D01*
X51047Y12670D01*
D02*
G37*
G36*
X50793D02*
X50576Y12649D01*
X50246Y12548D01*
X49941Y12385D01*
X49674Y12166D01*
X49455Y11899D01*
X49292Y11594D01*
X49191Y11264D01*
X49170Y11047D01*
X50793D01*
Y12670D01*
D02*
G37*
G36*
X37754Y16239D02*
X3246D01*
Y10246D01*
X37754D01*
Y16239D01*
D02*
G37*
G36*
X62830Y10793D02*
X61207D01*
Y9170D01*
X61424Y9191D01*
X61754Y9292D01*
X62059Y9455D01*
X62326Y9674D01*
X62545Y9941D01*
X62708Y10246D01*
X62809Y10576D01*
X62830Y10793D01*
D02*
G37*
G36*
X60953D02*
X59330D01*
X59351Y10576D01*
X59452Y10246D01*
X59615Y9941D01*
X59834Y9674D01*
X60101Y9455D01*
X60406Y9292D01*
X60736Y9191D01*
X60953Y9170D01*
Y10793D01*
D02*
G37*
G36*
X52670D02*
X51047D01*
Y9170D01*
X51264Y9191D01*
X51594Y9292D01*
X51899Y9455D01*
X52166Y9674D01*
X52385Y9941D01*
X52548Y10246D01*
X52649Y10576D01*
X52670Y10793D01*
D02*
G37*
G36*
X50793D02*
X49170D01*
X49191Y10576D01*
X49292Y10246D01*
X49455Y9941D01*
X49674Y9674D01*
X49941Y9455D01*
X50246Y9292D01*
X50576Y9191D01*
X50793Y9170D01*
Y10793D01*
D02*
G37*
G36*
X41532Y43508D02*
X38992D01*
Y8213D01*
X41532D01*
Y43508D01*
D02*
G37*
G36*
X55071Y8032D02*
X49992D01*
Y5492D01*
X55071D01*
Y8032D01*
D02*
G37*
G36*
X3500Y6864D02*
X2974Y6823D01*
X2460Y6700D01*
X1973Y6498D01*
X1522Y6222D01*
X1121Y5879D01*
X778Y5478D01*
X502Y5027D01*
X300Y4540D01*
X177Y4026D01*
X136Y3500D01*
X177Y2974D01*
X300Y2460D01*
X502Y1973D01*
X778Y1522D01*
X1121Y1121D01*
X1522Y778D01*
X1973Y502D01*
X2460Y300D01*
X2974Y177D01*
X3500Y136D01*
X4026Y177D01*
X4540Y300D01*
X5027Y502D01*
X5478Y778D01*
X5879Y1121D01*
X6222Y1522D01*
X6498Y1973D01*
X6700Y2460D01*
X6823Y2974D01*
X6864Y3500D01*
X6823Y4026D01*
X6700Y4540D01*
X6498Y5027D01*
X6222Y5478D01*
X5879Y5879D01*
X5478Y6222D01*
X5027Y6498D01*
X4540Y6700D01*
X4026Y6823D01*
X3500Y6864D01*
D02*
G37*
%LPD*%
D10*
X14000Y24000D02*
X22000D01*
X16460Y26540D02*
X21960D01*
X18420Y29080D02*
X21920D01*
X13580Y33920D02*
X18420Y29080D01*
X13580Y33920D02*
Y51000D01*
X8500Y29500D02*
X14000Y24000D01*
X8500Y29500D02*
Y51000D01*
X11040Y31960D02*
X16460Y26540D01*
X11040Y31960D02*
Y51000D01*
X13580D02*
X14000Y50580D01*
D11*
X4770Y15477D02*
X4516Y15731D01*
X4008D01*
X3754Y15477D01*
Y15223D01*
X4008Y14969D01*
X4516D01*
X4770Y14715D01*
Y14461D01*
X4516Y14207D01*
X4008D01*
X3754Y14461D01*
X5278Y15731D02*
Y14207D01*
Y14969D01*
X5531Y15223D01*
X6039D01*
X6293Y14969D01*
Y14207D01*
X6801D02*
X7309D01*
X7055D01*
Y15223D01*
X6801D01*
X8832Y14207D02*
X8325D01*
X8071Y14461D01*
Y14969D01*
X8325Y15223D01*
X8832D01*
X9086Y14969D01*
Y14715D01*
X8071D01*
X9594Y14207D02*
X10102D01*
X9848D01*
Y15731D01*
X9594D01*
X11879D02*
Y14207D01*
X11118D01*
X10864Y14461D01*
Y14969D01*
X11118Y15223D01*
X11879D01*
X13911Y15731D02*
X14419D01*
X14165D01*
Y14207D01*
X13911D01*
X14419D01*
X16196D02*
X15180D01*
X16196Y15223D01*
Y15477D01*
X15942Y15731D01*
X15434D01*
X15180Y15477D01*
X17719D02*
X17466Y15731D01*
X16958D01*
X16704Y15477D01*
Y14461D01*
X16958Y14207D01*
X17466D01*
X17719Y14461D01*
X19751Y15223D02*
Y14207D01*
Y14715D01*
X20005Y14969D01*
X20259Y15223D01*
X20513D01*
X21528D02*
X22036D01*
X22290Y14969D01*
Y14207D01*
X21528D01*
X21274Y14461D01*
X21528Y14715D01*
X22290D01*
X22798Y14207D02*
X23560D01*
X23814Y14461D01*
X23560Y14715D01*
X23052D01*
X22798Y14969D01*
X23052Y15223D01*
X23814D01*
X24321Y13700D02*
Y15223D01*
X25083D01*
X25337Y14969D01*
Y14461D01*
X25083Y14207D01*
X24321D01*
X25845Y15731D02*
Y14207D01*
X26607D01*
X26861Y14461D01*
Y14715D01*
Y14969D01*
X26607Y15223D01*
X25845D01*
X28130Y14207D02*
X27622D01*
X27368Y14461D01*
Y14969D01*
X27622Y15223D01*
X28130D01*
X28384Y14969D01*
Y14715D01*
X27368D01*
X28892Y15223D02*
Y14207D01*
Y14715D01*
X29146Y14969D01*
X29400Y15223D01*
X29654D01*
X30415D02*
Y14207D01*
Y14715D01*
X30669Y14969D01*
X30923Y15223D01*
X31177D01*
X31939D02*
Y14461D01*
X32193Y14207D01*
X32955D01*
Y13954D01*
X32701Y13700D01*
X32447D01*
X32955Y14207D02*
Y15223D01*
X34986Y13700D02*
Y15223D01*
X35748D01*
X36002Y14969D01*
Y14461D01*
X35748Y14207D01*
X34986D01*
X36509D02*
X37017D01*
X36763D01*
Y15223D01*
X36509D01*
X3754Y11262D02*
Y12785D01*
X4516D01*
X4770Y12531D01*
Y12024D01*
X4516Y11770D01*
X3754D01*
X5278Y12278D02*
Y11262D01*
Y11770D01*
X5531Y12024D01*
X5785Y12278D01*
X6039D01*
X7055Y11262D02*
X7563D01*
X7817Y11516D01*
Y12024D01*
X7563Y12278D01*
X7055D01*
X6801Y12024D01*
Y11516D01*
X7055Y11262D01*
X8325Y10754D02*
X8578D01*
X8832Y11008D01*
Y12278D01*
X10610Y11262D02*
X10102D01*
X9848Y11516D01*
Y12024D01*
X10102Y12278D01*
X10610D01*
X10864Y12024D01*
Y11770D01*
X9848D01*
X11625Y12531D02*
Y12278D01*
X11372D01*
X11879D01*
X11625D01*
Y11516D01*
X11879Y11262D01*
X14165Y12785D02*
X15180D01*
X14672D01*
Y11262D01*
X15688Y12024D02*
X16704D01*
X17212Y11262D02*
Y12785D01*
X17973D01*
X18227Y12531D01*
Y12024D01*
X17973Y11770D01*
X17212D01*
X17719D02*
X18227Y11262D01*
X19751Y12785D02*
X18735D01*
Y11262D01*
X19751D01*
X18735Y12024D02*
X19243D01*
X20259Y12785D02*
X21274Y11262D01*
Y12785D02*
X20259Y11262D01*
X51516Y29270D02*
X51262Y29524D01*
X50754D01*
X50500Y29270D01*
Y29016D01*
X50754Y28762D01*
X51262D01*
X51516Y28508D01*
Y28254D01*
X51262Y28000D01*
X50754D01*
X50500Y28254D01*
X53039Y29270D02*
X52785Y29524D01*
X52277D01*
X52024Y29270D01*
Y28254D01*
X52277Y28000D01*
X52785D01*
X53039Y28254D01*
X53547Y29524D02*
Y28000D01*
X54563D01*
X51516Y7270D02*
X51262Y7524D01*
X50754D01*
X50500Y7270D01*
Y7016D01*
X50754Y6762D01*
X51262D01*
X51516Y6508D01*
Y6254D01*
X51262Y6000D01*
X50754D01*
X50500Y6254D01*
X52024Y7524D02*
Y6000D01*
X52785D01*
X53039Y6254D01*
Y7270D01*
X52785Y7524D01*
X52024D01*
X53547Y6000D02*
Y7016D01*
X54055Y7524D01*
X54563Y7016D01*
Y6000D01*
Y6762D01*
X53547D01*
X40770Y41984D02*
X41024Y42238D01*
Y42746D01*
X40770Y43000D01*
X39754D01*
X39500Y42746D01*
Y42238D01*
X39754Y41984D01*
X40262D01*
Y42492D01*
X39500Y41476D02*
X41024D01*
X39500Y40461D01*
X41024D01*
Y39953D02*
X39500D01*
Y39191D01*
X39754Y38937D01*
X40770D01*
X41024Y39191D01*
Y39953D01*
X39500Y36906D02*
X40516Y35890D01*
X40770Y32843D02*
X41024Y33097D01*
Y33605D01*
X40770Y33859D01*
X40516D01*
X40262Y33605D01*
Y33097D01*
X40008Y32843D01*
X39754D01*
X39500Y33097D01*
Y33605D01*
X39754Y33859D01*
X40770Y31320D02*
X41024Y31574D01*
Y32082D01*
X40770Y32335D01*
X39754D01*
X39500Y32082D01*
Y31574D01*
X39754Y31320D01*
X41024Y30812D02*
X39500D01*
Y29796D01*
Y27765D02*
X40516Y26749D01*
X40770Y23702D02*
X41024Y23956D01*
Y24464D01*
X40770Y24718D01*
X40516D01*
X40262Y24464D01*
Y23956D01*
X40008Y23702D01*
X39754D01*
X39500Y23956D01*
Y24464D01*
X39754Y24718D01*
X41024Y23194D02*
X39500D01*
Y22433D01*
X39754Y22179D01*
X40770D01*
X41024Y22433D01*
Y23194D01*
X39500Y21671D02*
X40516D01*
X41024Y21163D01*
X40516Y20655D01*
X39500D01*
X40262D01*
Y21671D01*
X39500Y18624D02*
X40516Y17608D01*
X40262Y15577D02*
Y14561D01*
X40770Y15069D02*
X39754D01*
X40770Y14053D02*
X41024Y13799D01*
Y13292D01*
X40770Y13038D01*
X40516D01*
X40262Y13292D01*
Y13546D01*
Y13292D01*
X40008Y13038D01*
X39754D01*
X39500Y13292D01*
Y13799D01*
X39754Y14053D01*
X39500Y12530D02*
X39754D01*
Y12276D01*
X39500D01*
Y12530D01*
X40770Y11260D02*
X41024Y11006D01*
Y10499D01*
X40770Y10245D01*
X40516D01*
X40262Y10499D01*
Y10752D01*
Y10499D01*
X40008Y10245D01*
X39754D01*
X39500Y10499D01*
Y11006D01*
X39754Y11260D01*
X41024Y9737D02*
X40008D01*
X39500Y9229D01*
X40008Y8721D01*
X41024D01*
D12*
X3500Y52500D02*
D03*
X61500D02*
D03*
Y3500D02*
D03*
X3500D02*
D03*
D13*
X36500Y31620D02*
D03*
Y29080D02*
D03*
Y26540D02*
D03*
Y24000D02*
D03*
D14*
X31360Y53540D02*
D03*
Y51000D02*
D03*
X28820Y53540D02*
D03*
Y51000D02*
D03*
X26280Y53540D02*
D03*
Y51000D02*
D03*
X23740Y53540D02*
D03*
Y51000D02*
D03*
X21200Y53540D02*
D03*
Y51000D02*
D03*
X18660Y53540D02*
D03*
Y51000D02*
D03*
X16120Y53540D02*
D03*
Y51000D02*
D03*
X13580Y53540D02*
D03*
Y51000D02*
D03*
X11040Y53540D02*
D03*
Y51000D02*
D03*
X8500Y53540D02*
D03*
X33900Y51000D02*
D03*
Y53540D02*
D03*
X36440Y51000D02*
D03*
Y53540D02*
D03*
X38980D02*
D03*
Y51000D02*
D03*
X56760D02*
D03*
Y53540D02*
D03*
X54220D02*
D03*
Y51000D02*
D03*
X51680Y53540D02*
D03*
Y51000D02*
D03*
X41520D02*
D03*
Y53540D02*
D03*
X44060Y51000D02*
D03*
Y53540D02*
D03*
X46600Y51000D02*
D03*
Y53540D02*
D03*
X49140Y51000D02*
D03*
Y53540D02*
D03*
D15*
X8500Y51000D02*
D03*
D16*
X50920Y10920D02*
D03*
X61080D02*
D03*
Y21080D02*
D03*
X50920D02*
D03*
X56000Y16000D02*
D03*
X50920Y32920D02*
D03*
X61080D02*
D03*
Y43080D02*
D03*
X50920D02*
D03*
X56000Y38000D02*
D03*
D17*
X22000Y24000D02*
D03*
X21960Y26540D02*
D03*
X21920Y29080D02*
D03*
M02*
