G04 Layer_Physical_Order=2*
G04 Layer_Color=16711680*
%FSLAX43Y43*%
%MOMM*%
G71*
G01*
G75*
%ADD10C,1.000*%
%ADD12C,6.200*%
%ADD13C,2.032*%
%ADD14P,2.199X8X112.5*%
%ADD15R,2.032X2.032*%
%ADD16C,3.000*%
%ADD17C,1.270*%
G36*
X63888Y55647D02*
X64888Y54647D01*
Y54147D01*
Y53299D01*
X64761Y53284D01*
X64700Y53540D01*
X64498Y54027D01*
X64222Y54478D01*
X63879Y54879D01*
X63478Y55222D01*
X63027Y55498D01*
X62540Y55700D01*
X62026Y55823D01*
X61500Y55864D01*
X60974Y55823D01*
X60460Y55700D01*
X59973Y55498D01*
X59522Y55222D01*
X59121Y54879D01*
X58778Y54478D01*
X58502Y54027D01*
X58300Y53540D01*
X58177Y53026D01*
X58136Y52500D01*
X58177Y51974D01*
X58300Y51460D01*
X58502Y50973D01*
X58778Y50522D01*
X59121Y50121D01*
X59522Y49778D01*
X59973Y49502D01*
X60460Y49300D01*
X60974Y49177D01*
X61500Y49136D01*
X62026Y49177D01*
X62540Y49300D01*
X63027Y49502D01*
X63478Y49778D01*
X63879Y50121D01*
X64222Y50522D01*
X64498Y50973D01*
X64700Y51460D01*
X64761Y51716D01*
X64888Y51701D01*
Y4299D01*
X64761Y4284D01*
X64700Y4540D01*
X64498Y5027D01*
X64222Y5478D01*
X63879Y5879D01*
X63478Y6222D01*
X63027Y6498D01*
X62540Y6700D01*
X62026Y6823D01*
X61500Y6864D01*
X60974Y6823D01*
X60460Y6700D01*
X59973Y6498D01*
X59522Y6222D01*
X59121Y5879D01*
X58778Y5478D01*
X58502Y5027D01*
X58300Y4540D01*
X58177Y4026D01*
X58136Y3500D01*
X58177Y2974D01*
X58300Y2460D01*
X58502Y1973D01*
X58778Y1522D01*
X59121Y1121D01*
X59522Y778D01*
X59973Y502D01*
X60460Y300D01*
X60569Y274D01*
X60553Y147D01*
X4447D01*
X4431Y274D01*
X4540Y300D01*
X5027Y502D01*
X5478Y778D01*
X5879Y1121D01*
X6222Y1522D01*
X6498Y1973D01*
X6700Y2460D01*
X6823Y2974D01*
X6864Y3500D01*
X6823Y4026D01*
X6700Y4540D01*
X6498Y5027D01*
X6222Y5478D01*
X5879Y5879D01*
X5478Y6222D01*
X5027Y6498D01*
X4540Y6700D01*
X4026Y6823D01*
X3500Y6864D01*
X2974Y6823D01*
X2460Y6700D01*
X1973Y6498D01*
X1522Y6222D01*
X1121Y5879D01*
X778Y5478D01*
X502Y5027D01*
X300Y4540D01*
X177Y4026D01*
X136Y3500D01*
X177Y2974D01*
X300Y2460D01*
X502Y1973D01*
X778Y1522D01*
X1121Y1121D01*
X1522Y778D01*
X1973Y502D01*
X2460Y300D01*
X2569Y274D01*
X2553Y147D01*
X1388D01*
X-112Y1647D01*
Y19147D01*
X3888D01*
X4388Y19647D01*
X4888Y20147D01*
Y35147D01*
X3888Y36147D01*
X388D01*
Y36147D01*
X-112Y36647D01*
Y53647D01*
Y54647D01*
X1388Y56147D01*
X63388D01*
X63888Y55647D01*
D02*
G37*
%LPC*%
G36*
X57395Y54810D02*
X56125D01*
X55490Y54175D01*
X54855Y54810D01*
X53585D01*
X52950Y54175D01*
X52315Y54810D01*
X51045D01*
X50410Y54175D01*
X49775Y54810D01*
X49267D01*
Y53540D01*
X49013D01*
Y54810D01*
X48505D01*
X47870Y54175D01*
X47235Y54810D01*
X45965D01*
X45330Y54175D01*
X44695Y54810D01*
X44187D01*
Y53540D01*
X43933D01*
Y54810D01*
X43425D01*
X42790Y54175D01*
X42155Y54810D01*
X40885D01*
X40250Y54175D01*
X39615Y54810D01*
X38345D01*
X37710Y54175D01*
X37075Y54810D01*
X35805D01*
X35170Y54175D01*
X34535Y54810D01*
X33265D01*
X32630Y54175D01*
X31995Y54810D01*
X31487D01*
Y53540D01*
X31233D01*
Y54810D01*
X30725D01*
X30090Y54175D01*
X29455Y54810D01*
X28185D01*
X27550Y54175D01*
X26915Y54810D01*
X25645D01*
X25010Y54175D01*
X24375Y54810D01*
X23867D01*
Y53540D01*
X23613D01*
Y54810D01*
X23105D01*
X22470Y54175D01*
X21835Y54810D01*
X20565D01*
X19930Y54175D01*
X19295Y54810D01*
X18025D01*
X17390Y54175D01*
X16755Y54810D01*
X15485D01*
X14850Y54175D01*
X14215Y54810D01*
X13707D01*
Y53540D01*
X13453D01*
Y54810D01*
X12945D01*
X12310Y54175D01*
X11675Y54810D01*
X10405D01*
X9770Y54175D01*
X9135Y54810D01*
X7865D01*
X7230Y54175D01*
Y52905D01*
X7748Y52387D01*
X7699Y52270D01*
X7230D01*
Y49730D01*
X9770D01*
Y50199D01*
X9887Y50248D01*
X10405Y49730D01*
X11675D01*
X12310Y50365D01*
X12945Y49730D01*
X14215D01*
X14850Y50365D01*
X15485Y49730D01*
X16755D01*
X17390Y50365D01*
X18025Y49730D01*
X18533D01*
Y51000D01*
X18787D01*
Y49730D01*
X19295D01*
X19930Y50365D01*
X20565Y49730D01*
X21835D01*
X22470Y50365D01*
X23105Y49730D01*
X24375D01*
X25010Y50365D01*
X25645Y49730D01*
X26915D01*
X27550Y50365D01*
X28185Y49730D01*
X29455D01*
X30090Y50365D01*
X30725Y49730D01*
X31995D01*
X32630Y50365D01*
X33265Y49730D01*
X34535D01*
X35170Y50365D01*
X35805Y49730D01*
X37075D01*
X37710Y50365D01*
X38345Y49730D01*
X38853D01*
Y51000D01*
X39107D01*
Y49730D01*
X39615D01*
X40250Y50365D01*
X40885Y49730D01*
X42155D01*
X42790Y50365D01*
X43425Y49730D01*
X44695D01*
X45330Y50365D01*
X45965Y49730D01*
X47235D01*
X47870Y50365D01*
X48505Y49730D01*
X49775D01*
X50410Y50365D01*
X51045Y49730D01*
X52315D01*
X52950Y50365D01*
X53585Y49730D01*
X54855D01*
X55490Y50365D01*
X56125Y49730D01*
X57395D01*
X58030Y50365D01*
Y51635D01*
X57395Y52270D01*
X58030Y52905D01*
Y54175D01*
X57395Y54810D01*
D02*
G37*
G36*
X3500Y55864D02*
X2974Y55823D01*
X2460Y55700D01*
X1973Y55498D01*
X1522Y55222D01*
X1121Y54879D01*
X778Y54478D01*
X502Y54027D01*
X300Y53540D01*
X177Y53026D01*
X136Y52500D01*
X177Y51974D01*
X300Y51460D01*
X502Y50973D01*
X778Y50522D01*
X1121Y50121D01*
X1522Y49778D01*
X1973Y49502D01*
X2460Y49300D01*
X2974Y49177D01*
X3500Y49136D01*
X4026Y49177D01*
X4540Y49300D01*
X5027Y49502D01*
X5478Y49778D01*
X5879Y50121D01*
X6222Y50522D01*
X6498Y50973D01*
X6700Y51460D01*
X6823Y51974D01*
X6864Y52500D01*
X6823Y53026D01*
X6700Y53540D01*
X6498Y54027D01*
X6222Y54478D01*
X5879Y54879D01*
X5478Y55222D01*
X5027Y55498D01*
X4540Y55700D01*
X4026Y55823D01*
X3500Y55864D01*
D02*
G37*
G36*
X61207Y44830D02*
Y43207D01*
X62830D01*
X62809Y43424D01*
X62708Y43754D01*
X62545Y44059D01*
X62326Y44326D01*
X62059Y44545D01*
X61754Y44708D01*
X61424Y44809D01*
X61207Y44830D01*
D02*
G37*
G36*
X60953D02*
X60736Y44809D01*
X60406Y44708D01*
X60101Y44545D01*
X59834Y44326D01*
X59615Y44059D01*
X59452Y43754D01*
X59351Y43424D01*
X59330Y43207D01*
X60953D01*
Y44830D01*
D02*
G37*
G36*
X51047D02*
Y43207D01*
X52670D01*
X52649Y43424D01*
X52548Y43754D01*
X52385Y44059D01*
X52166Y44326D01*
X51899Y44545D01*
X51594Y44708D01*
X51264Y44809D01*
X51047Y44830D01*
D02*
G37*
G36*
X50793D02*
X50576Y44809D01*
X50246Y44708D01*
X49941Y44545D01*
X49674Y44326D01*
X49455Y44059D01*
X49292Y43754D01*
X49191Y43424D01*
X49170Y43207D01*
X50793D01*
Y44830D01*
D02*
G37*
G36*
X62830Y42953D02*
X61207D01*
Y41330D01*
X61424Y41351D01*
X61754Y41452D01*
X62059Y41615D01*
X62326Y41834D01*
X62545Y42101D01*
X62708Y42406D01*
X62809Y42736D01*
X62830Y42953D01*
D02*
G37*
G36*
X60953D02*
X59330D01*
X59351Y42736D01*
X59452Y42406D01*
X59615Y42101D01*
X59834Y41834D01*
X60101Y41615D01*
X60406Y41452D01*
X60736Y41351D01*
X60953Y41330D01*
Y42953D01*
D02*
G37*
G36*
X52670D02*
X51047D01*
Y41330D01*
X51264Y41351D01*
X51594Y41452D01*
X51899Y41615D01*
X52166Y41834D01*
X52385Y42101D01*
X52548Y42406D01*
X52649Y42736D01*
X52670Y42953D01*
D02*
G37*
G36*
X50793D02*
X49170D01*
X49191Y42736D01*
X49292Y42406D01*
X49455Y42101D01*
X49674Y41834D01*
X49941Y41615D01*
X50246Y41452D01*
X50576Y41351D01*
X50793Y41330D01*
Y42953D01*
D02*
G37*
G36*
X61207Y34670D02*
Y33047D01*
X62830D01*
X62809Y33264D01*
X62708Y33594D01*
X62545Y33899D01*
X62326Y34166D01*
X62059Y34385D01*
X61754Y34548D01*
X61424Y34649D01*
X61207Y34670D01*
D02*
G37*
G36*
X60953D02*
X60736Y34649D01*
X60406Y34548D01*
X60101Y34385D01*
X59834Y34166D01*
X59615Y33899D01*
X59452Y33594D01*
X59351Y33264D01*
X59330Y33047D01*
X60953D01*
Y34670D01*
D02*
G37*
G36*
X51047D02*
Y33047D01*
X52670D01*
X52649Y33264D01*
X52548Y33594D01*
X52385Y33899D01*
X52166Y34166D01*
X51899Y34385D01*
X51594Y34548D01*
X51264Y34649D01*
X51047Y34670D01*
D02*
G37*
G36*
X50793D02*
X50576Y34649D01*
X50246Y34548D01*
X49941Y34385D01*
X49674Y34166D01*
X49455Y33899D01*
X49292Y33594D01*
X49191Y33264D01*
X49170Y33047D01*
X50793D01*
Y34670D01*
D02*
G37*
G36*
X36627Y32884D02*
Y31747D01*
X37764D01*
X37737Y31952D01*
X37609Y32260D01*
X37406Y32526D01*
X37140Y32729D01*
X36832Y32857D01*
X36627Y32884D01*
D02*
G37*
G36*
X36373Y32884D02*
X36168Y32857D01*
X35860Y32729D01*
X35594Y32526D01*
X35391Y32260D01*
X35263Y31952D01*
X35236Y31747D01*
X36373D01*
Y32884D01*
D02*
G37*
G36*
X62830Y32793D02*
X61207D01*
Y31170D01*
X61424Y31191D01*
X61754Y31292D01*
X62059Y31455D01*
X62326Y31674D01*
X62545Y31941D01*
X62708Y32246D01*
X62809Y32576D01*
X62830Y32793D01*
D02*
G37*
G36*
X60953D02*
X59330D01*
X59351Y32576D01*
X59452Y32246D01*
X59615Y31941D01*
X59834Y31674D01*
X60101Y31455D01*
X60406Y31292D01*
X60736Y31191D01*
X60953Y31170D01*
Y32793D01*
D02*
G37*
G36*
X52670D02*
X51047D01*
Y31170D01*
X51264Y31191D01*
X51594Y31292D01*
X51899Y31455D01*
X52166Y31674D01*
X52385Y31941D01*
X52548Y32246D01*
X52649Y32576D01*
X52670Y32793D01*
D02*
G37*
G36*
X50793D02*
X49170D01*
X49191Y32576D01*
X49292Y32246D01*
X49455Y31941D01*
X49674Y31674D01*
X49941Y31455D01*
X50246Y31292D01*
X50576Y31191D01*
X50793Y31170D01*
Y32793D01*
D02*
G37*
G36*
X56000Y39762D02*
X55656Y39729D01*
X55326Y39628D01*
X55021Y39465D01*
X54754Y39246D01*
X54535Y38979D01*
X54372Y38674D01*
X54271Y38344D01*
X54238Y38000D01*
X54271Y37656D01*
X54372Y37326D01*
X54535Y37021D01*
X54754Y36754D01*
X55021Y36535D01*
X55239Y36418D01*
Y32315D01*
X52765Y29841D01*
X37517D01*
X37406Y29986D01*
X37140Y30189D01*
X36919Y30281D01*
Y30419D01*
X37140Y30511D01*
X37406Y30714D01*
X37609Y30980D01*
X37737Y31288D01*
X37764Y31493D01*
X36500D01*
X35236D01*
X35263Y31288D01*
X35391Y30980D01*
X35594Y30714D01*
X35860Y30511D01*
X36081Y30419D01*
Y30281D01*
X35860Y30189D01*
X35594Y29986D01*
X35483Y29841D01*
X22389D01*
X22368Y29857D01*
X22152Y29946D01*
X21920Y29977D01*
X21688Y29946D01*
X21472Y29857D01*
X21286Y29714D01*
X21143Y29528D01*
X21054Y29312D01*
X21023Y29080D01*
X21054Y28848D01*
X21143Y28632D01*
X21286Y28446D01*
X21472Y28303D01*
X21688Y28214D01*
X21920Y28183D01*
X22152Y28214D01*
X22368Y28303D01*
X22389Y28319D01*
X35483D01*
X35594Y28174D01*
X35860Y27971D01*
X36081Y27879D01*
Y27741D01*
X35860Y27649D01*
X35594Y27446D01*
X35483Y27301D01*
X22429D01*
X22408Y27317D01*
X22192Y27406D01*
X21960Y27437D01*
X21728Y27406D01*
X21512Y27317D01*
X21326Y27174D01*
X21183Y26988D01*
X21094Y26772D01*
X21063Y26540D01*
X21094Y26308D01*
X21183Y26092D01*
X21326Y25906D01*
X21512Y25763D01*
X21728Y25674D01*
X21960Y25643D01*
X22192Y25674D01*
X22408Y25763D01*
X22429Y25779D01*
X35483D01*
X35594Y25634D01*
X35860Y25431D01*
X36081Y25339D01*
Y25201D01*
X35860Y25109D01*
X35594Y24906D01*
X35483Y24761D01*
X22469D01*
X22448Y24777D01*
X22232Y24866D01*
X22000Y24897D01*
X21768Y24866D01*
X21552Y24777D01*
X21366Y24634D01*
X21223Y24448D01*
X21134Y24232D01*
X21103Y24000D01*
X21134Y23768D01*
X21223Y23552D01*
X21366Y23366D01*
X21552Y23223D01*
X21768Y23134D01*
X22000Y23103D01*
X22232Y23134D01*
X22448Y23223D01*
X22469Y23239D01*
X35483D01*
X35594Y23094D01*
X35860Y22891D01*
X36168Y22763D01*
X36500Y22719D01*
X36832Y22763D01*
X37140Y22891D01*
X37406Y23094D01*
X37609Y23360D01*
X37737Y23668D01*
X37781Y24000D01*
X37737Y24332D01*
X37609Y24640D01*
X37406Y24906D01*
X37140Y25109D01*
X36919Y25201D01*
Y25339D01*
X37140Y25431D01*
X37406Y25634D01*
X37517Y25779D01*
X53145D01*
X55239Y23685D01*
Y17582D01*
X55021Y17465D01*
X54754Y17246D01*
X54535Y16979D01*
X54372Y16674D01*
X54271Y16344D01*
X54238Y16000D01*
X54271Y15656D01*
X54372Y15326D01*
X54535Y15021D01*
X54754Y14754D01*
X55021Y14535D01*
X55326Y14372D01*
X55656Y14271D01*
X56000Y14238D01*
X56344Y14271D01*
X56674Y14372D01*
X56979Y14535D01*
X57246Y14754D01*
X57465Y15021D01*
X57628Y15326D01*
X57729Y15656D01*
X57762Y16000D01*
X57729Y16344D01*
X57628Y16674D01*
X57465Y16979D01*
X57246Y17246D01*
X56979Y17465D01*
X56761Y17582D01*
Y24000D01*
X56735Y24197D01*
X56659Y24380D01*
X56538Y24538D01*
X53998Y27078D01*
X53840Y27199D01*
X53657Y27275D01*
X53460Y27301D01*
X37517D01*
X37406Y27446D01*
X37140Y27649D01*
X36919Y27741D01*
Y27879D01*
X37140Y27971D01*
X37406Y28174D01*
X37517Y28319D01*
X53080D01*
X53277Y28345D01*
X53460Y28421D01*
X53618Y28542D01*
X56538Y31462D01*
X56659Y31620D01*
X56735Y31803D01*
X56761Y32000D01*
Y36418D01*
X56979Y36535D01*
X57246Y36754D01*
X57465Y37021D01*
X57628Y37326D01*
X57729Y37656D01*
X57762Y38000D01*
X57729Y38344D01*
X57628Y38674D01*
X57465Y38979D01*
X57246Y39246D01*
X56979Y39465D01*
X56674Y39628D01*
X56344Y39729D01*
X56000Y39762D01*
D02*
G37*
G36*
X61207Y22830D02*
Y21207D01*
X62830D01*
X62809Y21424D01*
X62708Y21754D01*
X62545Y22059D01*
X62326Y22326D01*
X62059Y22545D01*
X61754Y22708D01*
X61424Y22809D01*
X61207Y22830D01*
D02*
G37*
G36*
X60953D02*
X60736Y22809D01*
X60406Y22708D01*
X60101Y22545D01*
X59834Y22326D01*
X59615Y22059D01*
X59452Y21754D01*
X59351Y21424D01*
X59330Y21207D01*
X60953D01*
Y22830D01*
D02*
G37*
G36*
X51047D02*
Y21207D01*
X52670D01*
X52649Y21424D01*
X52548Y21754D01*
X52385Y22059D01*
X52166Y22326D01*
X51899Y22545D01*
X51594Y22708D01*
X51264Y22809D01*
X51047Y22830D01*
D02*
G37*
G36*
X50793D02*
X50576Y22809D01*
X50246Y22708D01*
X49941Y22545D01*
X49674Y22326D01*
X49455Y22059D01*
X49292Y21754D01*
X49191Y21424D01*
X49170Y21207D01*
X50793D01*
Y22830D01*
D02*
G37*
G36*
X62830Y20953D02*
X61207D01*
Y19330D01*
X61424Y19351D01*
X61754Y19452D01*
X62059Y19615D01*
X62326Y19834D01*
X62545Y20101D01*
X62708Y20406D01*
X62809Y20736D01*
X62830Y20953D01*
D02*
G37*
G36*
X60953D02*
X59330D01*
X59351Y20736D01*
X59452Y20406D01*
X59615Y20101D01*
X59834Y19834D01*
X60101Y19615D01*
X60406Y19452D01*
X60736Y19351D01*
X60953Y19330D01*
Y20953D01*
D02*
G37*
G36*
X52670D02*
X51047D01*
Y19330D01*
X51264Y19351D01*
X51594Y19452D01*
X51899Y19615D01*
X52166Y19834D01*
X52385Y20101D01*
X52548Y20406D01*
X52649Y20736D01*
X52670Y20953D01*
D02*
G37*
G36*
X50793D02*
X49170D01*
X49191Y20736D01*
X49292Y20406D01*
X49455Y20101D01*
X49674Y19834D01*
X49941Y19615D01*
X50246Y19452D01*
X50576Y19351D01*
X50793Y19330D01*
Y20953D01*
D02*
G37*
G36*
X61207Y12670D02*
Y11047D01*
X62830D01*
X62809Y11264D01*
X62708Y11594D01*
X62545Y11899D01*
X62326Y12166D01*
X62059Y12385D01*
X61754Y12548D01*
X61424Y12649D01*
X61207Y12670D01*
D02*
G37*
G36*
X60953D02*
X60736Y12649D01*
X60406Y12548D01*
X60101Y12385D01*
X59834Y12166D01*
X59615Y11899D01*
X59452Y11594D01*
X59351Y11264D01*
X59330Y11047D01*
X60953D01*
Y12670D01*
D02*
G37*
G36*
X51047D02*
Y11047D01*
X52670D01*
X52649Y11264D01*
X52548Y11594D01*
X52385Y11899D01*
X52166Y12166D01*
X51899Y12385D01*
X51594Y12548D01*
X51264Y12649D01*
X51047Y12670D01*
D02*
G37*
G36*
X50793D02*
X50576Y12649D01*
X50246Y12548D01*
X49941Y12385D01*
X49674Y12166D01*
X49455Y11899D01*
X49292Y11594D01*
X49191Y11264D01*
X49170Y11047D01*
X50793D01*
Y12670D01*
D02*
G37*
G36*
X62830Y10793D02*
X61207D01*
Y9170D01*
X61424Y9191D01*
X61754Y9292D01*
X62059Y9455D01*
X62326Y9674D01*
X62545Y9941D01*
X62708Y10246D01*
X62809Y10576D01*
X62830Y10793D01*
D02*
G37*
G36*
X60953D02*
X59330D01*
X59351Y10576D01*
X59452Y10246D01*
X59615Y9941D01*
X59834Y9674D01*
X60101Y9455D01*
X60406Y9292D01*
X60736Y9191D01*
X60953Y9170D01*
Y10793D01*
D02*
G37*
G36*
X52670D02*
X51047D01*
Y9170D01*
X51264Y9191D01*
X51594Y9292D01*
X51899Y9455D01*
X52166Y9674D01*
X52385Y9941D01*
X52548Y10246D01*
X52649Y10576D01*
X52670Y10793D01*
D02*
G37*
G36*
X50793D02*
X49170D01*
X49191Y10576D01*
X49292Y10246D01*
X49455Y9941D01*
X49674Y9674D01*
X49941Y9455D01*
X50246Y9292D01*
X50576Y9191D01*
X50793Y9170D01*
Y10793D01*
D02*
G37*
%LPD*%
D10*
X22000Y24000D02*
X36500D01*
X21960Y26540D02*
X36500D01*
X21920Y29080D02*
X36500D01*
X56000Y16000D02*
Y24000D01*
X53460Y26540D02*
X56000Y24000D01*
X36500Y26540D02*
X53460D01*
X56000Y32000D02*
Y38000D01*
X53080Y29080D02*
X56000Y32000D01*
X36500Y29080D02*
X53080D01*
D12*
X3500Y52500D02*
D03*
X61500D02*
D03*
Y3500D02*
D03*
X3500D02*
D03*
D13*
X36500Y31620D02*
D03*
Y29080D02*
D03*
Y26540D02*
D03*
Y24000D02*
D03*
D14*
X31360Y53540D02*
D03*
Y51000D02*
D03*
X28820Y53540D02*
D03*
Y51000D02*
D03*
X26280Y53540D02*
D03*
Y51000D02*
D03*
X23740Y53540D02*
D03*
Y51000D02*
D03*
X21200Y53540D02*
D03*
Y51000D02*
D03*
X18660Y53540D02*
D03*
Y51000D02*
D03*
X16120Y53540D02*
D03*
Y51000D02*
D03*
X13580Y53540D02*
D03*
Y51000D02*
D03*
X11040Y53540D02*
D03*
Y51000D02*
D03*
X8500Y53540D02*
D03*
X33900Y51000D02*
D03*
Y53540D02*
D03*
X36440Y51000D02*
D03*
Y53540D02*
D03*
X38980D02*
D03*
Y51000D02*
D03*
X56760D02*
D03*
Y53540D02*
D03*
X54220D02*
D03*
Y51000D02*
D03*
X51680Y53540D02*
D03*
Y51000D02*
D03*
X41520D02*
D03*
Y53540D02*
D03*
X44060Y51000D02*
D03*
Y53540D02*
D03*
X46600Y51000D02*
D03*
Y53540D02*
D03*
X49140Y51000D02*
D03*
Y53540D02*
D03*
D15*
X8500Y51000D02*
D03*
D16*
X50920Y10920D02*
D03*
X61080D02*
D03*
Y21080D02*
D03*
X50920D02*
D03*
X56000Y16000D02*
D03*
X50920Y32920D02*
D03*
X61080D02*
D03*
Y43080D02*
D03*
X50920D02*
D03*
X56000Y38000D02*
D03*
D17*
X22000Y24000D02*
D03*
X21960Y26540D02*
D03*
X21920Y29080D02*
D03*
M02*
